<?xml version="1.0" standalone="no"?>
<!DOCTYPE svg PUBLIC "-//W3C//DTD SVG 20010904//EN"
 "http://www.w3.org/TR/2001/REC-SVG-20010904/DTD/svg10.dtd">
<svg version="1.0" xmlns="http://www.w3.org/2000/svg"
 width="512.000000pt" height="512.000000pt" viewBox="0 0 512.000000 512.000000"
 preserveAspectRatio="xMidYMid meet">
<metadata>
Created by potrace 1.11, written by Peter Selinger 2001-2013
</metadata>
<g transform="translate(0.000000,512.000000) scale(0.100000,-0.100000)"
fill="#000000" stroke="none">
<path d="M1429 5046 c-2 -2 -29 -7 -59 -11 -213 -26 -452 -124 -640 -264 -101
-74 -263 -239 -326 -331 -56 -82 -139 -230 -128 -230 3 0 2 -6 -3 -12 -16 -21
-51 -136 -67 -223 -64 -349 67 -644 313 -701 113 -27 235 -14 337 36 68 33
170 133 204 200 25 49 25 52 0 68 -18 11 -24 8 -56 -28 -20 -22 -66 -54 -102
-72 -124 -61 -270 -38 -365 58 -136 137 -173 345 -112 637 16 77 80 209 146
298 138 187 369 349 591 413 107 31 154 37 298 41 188 5 339 -35 473 -125 197
-132 289 -313 282 -555 -2 -60 -5 -119 -8 -130 -42 -170 -110 -296 -213 -398
-49 -48 -151 -107 -185 -107 -40 0 -43 -62 -4 -68 30 -5 79 -41 103 -77 27
-39 63 -143 106 -310 51 -195 52 -183 -19 -207 -206 -69 -391 -256 -459 -464
-25 -78 -27 -91 -31 -205 -4 -127 6 -181 50 -274 77 -162 221 -244 410 -233
162 10 274 97 357 280 16 34 16 37 -1 52 -16 15 -21 13 -66 -30 -70 -67 -156
-105 -251 -109 -215 -9 -364 127 -380 349 -17 222 130 437 326 475 55 10 135
10 146 -1 3 -3 14 -46 24 -94 26 -124 53 -190 109 -271 160 -228 385 -292 617
-178 75 36 89 41 80 26 -29 -46 -22 -521 8 -646 3 -11 8 -49 12 -85 3 -36 8
-67 9 -70 2 -3 7 -33 10 -65 4 -33 9 -62 10 -65 2 -3 6 -41 10 -85 4 -44 8
-91 11 -105 6 -33 5 -258 0 -290 -3 -14 -7 -42 -10 -63 -52 -349 -267 -572
-560 -582 -272 -9 -450 161 -448 427 1 73 -16 94 -47 61 -9 -10 -62 -60 -118
-112 -57 -51 -103 -98 -103 -103 0 -28 130 -171 209 -230 122 -92 267 -137
439 -136 266 1 479 117 660 358 156 207 230 442 237 755 2 77 3 143 4 146 1 4
25 8 54 11 28 2 77 16 108 30 l57 26 26 -32 c93 -110 165 -291 231 -581 7 -32
20 -79 42 -150 104 -338 209 -493 373 -552 53 -19 193 -11 269 16 135 47 292
179 401 336 l50 73 -37 28 -36 27 -21 -29 c-123 -169 -248 -265 -364 -279 -57
-6 -101 8 -165 52 -45 31 -64 71 -202 408 -53 132 -103 254 -110 270 -7 17
-29 68 -48 115 -70 171 -139 262 -254 337 -32 20 -60 38 -62 40 -2 1 14 24 36
50 94 112 225 340 318 554 25 57 50 113 55 124 5 11 19 44 30 74 21 53 34 82
107 240 104 222 206 314 353 315 53 1 73 -4 111 -26 82 -48 144 -136 156 -223
11 -82 23 -80 134 31 54 54 99 102 99 105 0 14 -77 83 -134 120 -93 61 -157
82 -268 85 -139 5 -251 -32 -368 -121 -182 -139 -276 -300 -422 -718 -105
-303 -143 -380 -251 -514 l-50 -63 -76 0 c-42 0 -96 -6 -121 -14 l-45 -13 -48
186 c-66 257 -90 362 -102 451 -5 39 -7 216 -2 241 1 9 25 47 53 85 28 38 61
83 73 101 l22 32 -40 29 -40 29 36 69 c19 38 44 81 54 96 25 35 24 42 -8 63
-19 13 -28 15 -31 6 -7 -20 -112 -144 -150 -177 -65 -55 -120 -78 -187 -78
-80 0 -142 31 -270 134 -58 47 -138 99 -191 126 -67 33 -93 51 -97 67 -2 12
-25 86 -50 165 -34 105 -58 161 -92 212 -50 75 -140 163 -192 188 -34 16 -43
32 -19 32 46 0 225 118 288 189 62 71 74 86 115 158 77 134 112 266 111 422
-3 360 -227 602 -628 676 -40 8 -405 17 -411 11z m1581 -2487 c-16 -35 -30
-69 -30 -76 0 -16 -72 -71 -133 -100 -98 -48 -236 -35 -305 29 -22 20 -106
177 -99 184 2 2 26 -8 54 -21 88 -43 168 -58 262 -52 75 6 95 12 180 54 53 27
97 48 99 47 1 -1 -11 -30 -28 -65z m348 -1085 c-17 -18 -85 -27 -93 -14 -3 5
7 12 22 16 15 3 33 7 38 9 6 2 19 4 30 4 18 1 18 0 3 -15z"/>
<path d="M1695 4648 c-103 -106 -135 -148 -184 -239 -82 -154 -116 -323 -116
-584 0 -123 5 -184 25 -335 5 -36 12 -87 15 -115 3 -27 8 -63 10 -80 16 -110
22 -385 10 -479 -17 -136 -93 -295 -184 -387 -98 -98 -194 -140 -331 -144
-167 -5 -287 63 -355 201 -38 77 -41 149 -9 243 15 46 21 78 16 83 -8 8 -163
-27 -279 -63 -38 -12 -39 -20 -18 -104 73 -282 310 -458 610 -454 112 2 190
18 283 60 274 123 482 443 520 799 13 120 5 337 -18 501 -6 41 -13 92 -16 114
-2 22 -9 65 -14 95 -78 455 -52 661 109 857 l50 62 -22 26 -22 26 -80 -83z"/>
</g>
</svg>
